<svg version="1.2" xmlns="http://www.w3.org/2000/svg" viewBox="0 0 597 348" width="597" height="348">
	<title>Data Miners Logo-ai</title>
	<style>
		.s0 { fill: #e58126 } 
		.s1 { fill: #a86022 } 
		.s2 { fill: #c69c6d } 
		.s3 { fill: #fbb03b } 
		.s4 { fill: #ffffff } 
		.s5 { fill: none;stroke: #e58126;stroke-width: 10 } 
		.s6 { fill: #2e4c78 } 
		.s7 { fill: #39d9e5 } 
		.s8 { fill: #008293 } 
		.s9 { fill: #6bc4c6 } 
		.s10 { fill: #0a2248 } 
		.s11 { fill: none;stroke: #008293;stroke-width: 10 } 
		.s12 { fill: #025a66 } 
		.s13 { fill: #24b1b5 } 
		.s14 { fill: #8df7f4 } 
		.s15 { fill: none;stroke: #025a66;stroke-width: 8 } 
		.s16 { fill: #000000 } 
		.s17 { fill: #606060 } 
		.s18 { fill: #828282 } 
		.s19 { fill: none;stroke: #000000;stroke-width: 8 } 
	</style>
	<g id="Layer 1">
		<g id="&lt;Group&gt;">
			<g id="&lt;Group&gt;">
				<path id="&lt;Compound Path&gt;" class="s0" d="m-833.9 1156.1v12.3h12.6v9.1c0 1.3 1 2.3 2.3 2.3h0.2c1.3 0 2.3-1 2.3-2.3v-9.1h12.7v-12.3h31.1v100.4h-31.1v-42.6h-5.7v11h-19.7v-8.8c0-1.2-1-2.2-2.3-2.2h-0.2c-1.2 0-2.2 1-2.2 2.2v40.4h-32.1v-100.4z" />
				<path id="&lt;Compound Path&gt;" class="s0" d="m-687.6 1156.1v12.3h11.9v11.8h12.7v10c0 1.3 1 2.3 2.2 2.3h0.2c1.3 0 2.3-1 2.3-2.3v-34.1h31.1v100.4h-31.1v-12.3h-12.7v-11.7h-12.7v-10.1c0-1.2-1-2.2-2.2-2.2h-0.3c-1.2 0-2.2 1-2.2 2.2v34.1h-32v-100.4z" />
				<path id="&lt;Compound Path&gt;" class="s0" d="m-540.8 1156.1v26.5h-42.8v10.3h42.8v26.9h-42.8v10.2h42.8v26.5h-76v-100.4z" />
				<path id="&lt;Compound Path&gt;" class="s0" d="m-397.7 1230v-10.2h-46.7v-63.7h79.1v26.5h-46.7v10.3h46.7v63.6h-79.1v-26.5z" />
			</g>
			<g id="&lt;Group&gt;">
				<path id="&lt;Path&gt;" class="s1" d="m-732.4 1253.7v3.7c0 1-1.2 1.9-2.6 1.9h-22.2c-1.5 0-2.7-0.9-2.7-1.9v-3.7z" />
				<g id="&lt;Group&gt;">
					<g id="&lt;Group&gt;">
						<path id="&lt;Path&gt;" class="s1" d="m-750.7 1254.5v-93.6h9.2v93.6z" />
						<path id="&lt;Path&gt;" class="s0" d="m-759.9 1254.5l0.1-93.6h9.1v93.6z" />
						<path id="&lt;Path&gt;" class="s0" d="m-741.5 1254.5v-93.6h9.1v93.6z" />
					</g>
					<path id="&lt;Path&gt;" class="s2" d="m-759.8 1160.9l13.7-17.7l13.7 17.7z" />
					<path id="&lt;Path&gt;" class="s1" d="m-750.7 1149.1l4.6-5.9l4.6 5.9z" />
				</g>
			</g>
		</g>
		<g id="&lt;Group&gt;">
			<g id="&lt;Group&gt;">
				<path id="&lt;Compound Path&gt;" class="s0" d="m-891.4 999.6h5.4q0.6 0 0.6 0.6v5.1q0 0.6-0.6 0.6h-5.4q-0.7 0-0.7-0.6v-5.1q0.1-0.6 0.7-0.6zm0 18.9h5.4q0.6 0.1 0.6 0.7v5q0 0.6-0.6 0.6h-5.4q-0.7 0-0.7-0.6v-5q0.1-0.7 0.7-0.7zm0 9.5h5.4q0.6 0.1 0.6 0.6v5.1q0 0.6-0.6 0.6h-5.4q-0.7 0-0.7-0.6v-5.1q0.1-0.6 0.7-0.6zm0 18.9h5.4q0.6 0.1 0.6 0.7v5q0 0.7-0.6 0.7h-5.4q-0.7 0-0.7-0.7v-5q0.1-0.7 0.7-0.7zm0 19h5.4q0.6 0.1 0.6 0.6v5.1q0 0.6-0.6 0.6h-5.4q-0.7 0-0.7-0.6v-5.1q0.1-0.6 0.7-0.6zm0 18.9h5.4q0.6 0.1 0.6 0.7v5q0 0.7-0.6 0.7h-5.4q-0.7 0-0.7-0.7v-5q0.1-0.7 0.7-0.7zm0 9.5h5.4q0.6 0.1 0.6 0.7v5q0 0.6-0.6 0.6h-5.4q-0.7 0-0.7-0.6v-5q0.1-0.7 0.7-0.7zm0 19h5.4q0.6 0.1 0.6 0.6v5.1q0 0.6-0.6 0.6h-5.4q-0.7 0-0.7-0.6v-5.1q0.1-0.6 0.7-0.6zm0 18.9h5.4q0.6 0.1 0.6 0.7v5q0 0.6-0.6 0.6h-5.4q-0.7 0-0.7-0.6v-5q0.1-0.7 0.7-0.7zm10.1-132.6h5.4q0.6 0 0.6 0.6v5.1q0 0.6-0.6 0.6h-5.4q-0.7 0-0.7-0.6v-5.1q0.1-0.6 0.7-0.6zm0 9.4h5.4q0.6 0.1 0.6 0.7v5q0 0.7-0.6 0.7h-5.4q-0.7 0-0.7-0.7v-5q0.1-0.7 0.7-0.7zm0 9.5h5.4q0.6 0.1 0.6 0.7v5q0 0.6-0.6 0.6h-5.4q-0.7 0-0.7-0.6v-5q0.1-0.7 0.7-0.7zm0 19h5.4q0.6 0 0.6 0.6v5.1q0 0.6-0.6 0.6h-5.4q-0.7 0-0.7-0.6v-5.1q0.1-0.6 0.7-0.6zm0 9.4h5.4q0.6 0.1 0.6 0.7v5q0 0.7-0.6 0.7h-5.4q-0.7 0-0.7-0.7v-5q0.1-0.7 0.7-0.7zm0 9.5h5.4q0.6 0.1 0.6 0.7v5q0 0.6-0.6 0.6h-5.4q-0.7 0-0.7-0.6v-5q0.1-0.7 0.7-0.7zm0 19h5.4q0.6 0 0.6 0.6v5.1q0 0.6-0.6 0.6h-5.4q-0.7 0-0.7-0.6v-5.1q0.1-0.6 0.7-0.6zm0 18.9h5.4q0.6 0.1 0.6 0.7v5q0 0.6-0.6 0.6h-5.4q-0.7 0-0.7-0.6v-5q0.1-0.7 0.7-0.7zm0 9.5h5.4q0.6 0.1 0.6 0.6v5.1q0 0.6-0.6 0.6h-5.4q-0.7 0-0.7-0.6v-5.1q0.1-0.6 0.7-0.6zm0 9.5h5.4q0.6 0.1 0.6 0.6v5.1q0 0.6-0.6 0.6h-5.4q-0.7 0-0.7-0.6v-5.1q0.1-0.6 0.7-0.6zm0 9.4h5.4q0.6 0.1 0.6 0.7v5q0 0.7-0.6 0.7h-5.4q-0.7 0-0.7-0.7v-5q0.1-0.7 0.7-0.7zm0 19h5.4q0.6 0.1 0.6 0.6v5.1q0 0.6-0.6 0.6h-5.4q-0.7 0-0.7-0.6v-5.1q0.1-0.6 0.7-0.6zm10.1-132.7h5.4q0.7 0.1 0.7 0.7v5q0 0.7-0.7 0.7h-5.4q-0.7 0-0.7-0.7v-5q0.1-0.7 0.7-0.7zm0 19h5.4q0.7 0.1 0.7 0.6v5.1q0 0.6-0.7 0.6h-5.4q-0.7 0-0.7-0.6v-5.1q0.1-0.6 0.7-0.6zm0 9.5h5.4q0.7 0 0.7 0.6v5.1q0 0.6-0.7 0.6h-5.4q-0.7 0-0.7-0.6v-5.1q0.1-0.6 0.7-0.6zm0 28.4h5.4q0.7 0.1 0.7 0.6v5.1q0 0.6-0.7 0.6h-5.4q-0.7 0-0.7-0.6v-5.1q0.1-0.6 0.7-0.6zm0 9.5h5.4q0.7 0 0.7 0.6v5.1q0 0.6-0.7 0.6h-5.4q-0.7 0-0.7-0.6v-5.1q0.1-0.6 0.7-0.6zm0 18.9h5.4q0.7 0.1 0.7 0.7v5q0 0.6-0.7 0.6h-5.4q-0.7 0-0.7-0.6v-5q0.1-0.7 0.7-0.7zm0 9.5h5.4q0.7 0.1 0.7 0.6v5.1q0 0.6-0.7 0.6h-5.4q-0.7 0-0.7-0.6v-5.1q0.1-0.6 0.7-0.6zm0 18.9h5.4q0.7 0.1 0.7 0.7v5q0 0.7-0.7 0.7h-5.4q-0.7 0-0.7-0.7v-5q0.1-0.7 0.7-0.7zm0 9.5h5.4q0.7 0.1 0.7 0.7v5q0 0.6-0.7 0.6h-5.4q-0.7 0-0.7-0.6v-5q0.1-0.7 0.7-0.7zm10.1-132.6h5.4q0.7 0 0.7 0.6v5.1q0 0.6-0.7 0.6h-5.4q-0.7 0-0.7-0.6v-5.1q0.1-0.6 0.7-0.6zm0 9.4h5.4q0.7 0.1 0.7 0.7v5q0 0.7-0.7 0.7h-5.4q-0.7 0-0.7-0.7v-5q0.1-0.7 0.7-0.7zm0 9.5h5.4q0.7 0.1 0.7 0.7v5q0 0.6-0.7 0.6h-5.4q-0.7 0-0.7-0.6v-5q0.1-0.7 0.7-0.7zm0 9.5h5.4q0.7 0.1 0.7 0.6v5.1q0 0.6-0.7 0.6h-5.4q-0.7 0-0.7-0.6v-5.1q0.1-0.6 0.7-0.6zm0 9.5h5.4q0.7 0 0.7 0.6v5.1q0 0.6-0.7 0.6h-5.4q-0.7 0-0.7-0.6v-5.1q0.1-0.6 0.7-0.6zm0 9.4h5.4q0.7 0.1 0.7 0.7v5q0 0.7-0.7 0.7h-5.4q-0.7 0-0.7-0.7v-5q0.1-0.7 0.7-0.7zm0 9.5h5.4q0.7 0.1 0.7 0.7v5q0 0.6-0.7 0.6h-5.4q-0.7 0-0.7-0.6v-5q0.1-0.7 0.7-0.7zm0 9.5h5.4q0.7 0.1 0.7 0.6v5.1q0 0.6-0.7 0.6h-5.4q-0.7 0-0.7-0.6v-5.1q0.1-0.6 0.7-0.6zm0 9.5h5.4q0.7 0 0.7 0.6v5.1q0 0.6-0.7 0.6h-5.4q-0.7 0-0.7-0.6v-5.1q0.1-0.6 0.7-0.6zm0 9.4h5.4q0.7 0.1 0.7 0.7v5q0 0.7-0.7 0.7h-5.4q-0.7 0-0.7-0.7v-5q0.1-0.7 0.7-0.7zm0 9.5h5.4q0.7 0.1 0.7 0.7v5q0 0.6-0.7 0.6h-5.4q-0.7 0-0.7-0.6v-5q0.1-0.7 0.7-0.7zm0 9.5h5.4q0.7 0.1 0.7 0.6v5.1q0 0.6-0.7 0.6h-5.4q-0.7 0-0.7-0.6v-5.1q0.1-0.6 0.7-0.6zm0 9.5h5.4q0.7 0.1 0.7 0.6v5.1q0 0.6-0.7 0.6h-5.4q-0.7 0-0.7-0.6v-5.1q0.1-0.6 0.7-0.6zm0 9.4h5.4q0.7 0.1 0.7 0.7v5q0 0.7-0.7 0.7h-5.4q-0.7 0-0.7-0.7v-5q0.1-0.7 0.7-0.7zm0 9.5h5.4q0.7 0.1 0.7 0.7v5q0 0.6-0.7 0.6h-5.4q-0.7 0-0.7-0.6v-5q0.1-0.7 0.7-0.7zm0 9.5h5.4q0.7 0.1 0.7 0.6v5.1q0 0.6-0.7 0.6h-5.4q-0.7 0-0.7-0.6v-5.1q0.1-0.6 0.7-0.6z" />
			</g>
			<g id="&lt;Group&gt;">
				<path id="&lt;Compound Path&gt;" fill-rule="evenodd" class="s0" d="m-761.3 999.5v13.5h13.4v121.6h-13.4v13.5h-104.6v-148.6zm-55.5 108.8h19.9v-69h-19.9z" />
				<path id="&lt;Compound Path&gt;" fill-rule="evenodd" class="s0" d="m-619 999.5v148.6h-48.5v-39.8h-16.5v39.8h-48.5v-148.6zm-64.4 72.6h15.3v-37.5h-15.3z" />
				<path id="&lt;Compound Path&gt;" class="s0" d="m-605 1038.7v-39.2h113.5v39.2h-32.2v109.4h-49.1v-109.4z" />
				<path id="&lt;Compound Path&gt;" fill-rule="evenodd" class="s0" d="m-365.3 999.5v148.6h-48.5v-39.8h-16.5v39.8h-48.5v-148.6zm-64.4 72.6h15.3v-37.5h-15.3z" />
			</g>
			<g id="&lt;Group&gt;">
				<g id="&lt;Group&gt;">
					<g id="&lt;Group&gt;">
						<path id="&lt;Path&gt;" class="s3" d="m-845.3 970.6c-2 0.4-3.7-1.5-3.2-3.5c1.3-4.9 3.4-12.6 3.6-13.2c0.7-1.7 6.9-6.2 18.7-9.6c11.8-3.4 23.5-2.2 32.4 0.6c9.6 3.1 16.5 9.7 17 10.2q0.5 0.5 0.8 3.1z" />
					</g>
					<path id="&lt;Path&gt;" class="s0" d="m-852.8 1001.4c-1.7 0.1-3-1.4-2.8-3c0.1-2 0.5-4.8 0.9-8c1.1-7.9 4.1-18.3 7.5-24.1c6.8-11.3 19.8-19.3 31.7-21.1c11.8-1.7 26.4 0.4 38.4 11.9c10.7 10.3 15.5 31.6 16.8 40.1c0.2 1.7-1 3.2-2.7 3.2z" />
					<g id="&lt;Group&gt;">
						<path id="&lt;Path&gt;" class="s3" d="m-845.1 997c17.4 2.2 46.6 2.9 82.2-3.3c1.1-0.2 2.3 0.3 2.9 1.4c0.8 1.3 1.7 2.8 2.4 4.1c1 1.6 0.1 3.6-1.7 4.1c-7.2 1.9-25.3 5.1-50.4 5.6c-34.2 0.7-54.8-2.1-58.8-2.9c-3.6-0.7-3.9-2.7-2.8-3.5c6.9-4.5 9.8-6.2 14.2-10c1.2-1 2.9-0.9 3.9 0.3c1.4 1.7 3.9 3.7 8.1 4.2z" />
					</g>
					<g id="&lt;Group&gt;">
						<path id="&lt;Path&gt;" class="s3" d="m-816.9 992.1l0.1 5.9c0 1.2-1 2.3-2.3 2.3l-15.5 0.3c-1.3 0.1-2.3-1-2.3-2.2l-0.2-5.9c0-2.4 1.9-4.4 4.4-4.5l11.2-0.2c2.5-0.1 4.5 1.9 4.6 4.3z" />
					</g>
					<g id="&lt;Group&gt;">
						<path id="&lt;Path&gt;" class="s3" d="m-779.2 991.4l0.1 5.8c0.1 1.3-0.9 2.4-2.2 2.4l-15.5 0.3c-1.3 0-2.4-1-2.4-2.3l-0.1-5.8c0-2.5 1.9-4.5 4.4-4.5l11.2-0.3c2.5 0 4.5 1.9 4.5 4.4z" />
					</g>
					<g id="&lt;Group&gt;">
						<path id="&lt;Path&gt;" class="s3" d="m-844.7 971.5c-1.1-0.7 12.6-21.4 34.8-21.8c22.7-0.5 32.1 12.1 32.1 13.5c0.1 1.3-11.8-5.2-31-4c-20.6 1.2-33.7 13.7-35.9 12.3z" />
					</g>
				</g>
			</g>
		</g>
		<g id="&lt;Group&gt;">
			<g id="&lt;Group&gt;">
				<path id="&lt;Compound Path&gt;" class="s0" d="m-505.4 1156.1v100.4h-22.6v-100.4z" />
			</g>
			<g id="&lt;Group&gt;">
				<path id="&lt;Path&gt;" class="s0" d="m-460.7 1255.7c-4.1 2-9.2 0.4-11.4-3.6l-16.3-30.6c-2.1-3.9-0.4-8.8 3.8-10.8c4.2-1.9 9.3-0.4 11.4 3.6l16.3 30.6c2.1 4 0.4 8.8-3.8 10.8z" />
				<g id="&lt;Group&gt;">
					<path id="&lt;Path&gt;" class="s4" d="m-462.6 1240.4q-0.2-0.1-0.3-0.3l-2.1-3.9c-0.1-0.2 0-0.5 0.2-0.7c0.3-0.1 0.6 0 0.8 0.3l2.1 3.9c0.1 0.2 0 0.5-0.3 0.7q-0.2 0.1-0.4 0z" />
					<path id="&lt;Path&gt;" class="s4" d="m-465.5 1234.9q-0.2-0.1-0.3-0.3c-2.4-4.5-4.9-9-7.3-13.5c-0.2-0.2 0-0.5 0.2-0.7c0.3-0.1 0.6 0 0.7 0.3c2.5 4.4 5 9 7.3 13.5c0.2 0.2 0 0.5-0.2 0.7q-0.2 0.1-0.4 0z" />
				</g>
				<g id="&lt;Group&gt;">
					<path id="&lt;Path&gt;" class="s0" d="m-483.5 1195.7c-0.5-0.4-0.5-1.1 0-1.6q1.2-1.2 2.2-2.6c0.4-0.5 1.1-0.6 1.7-0.3c0.5 0.3 0.7 1 0.3 1.6q-1.1 1.6-2.5 2.9c-0.5 0.5-1.3 0.5-1.7 0z" />
					<path id="&lt;Path&gt;" class="s0" d="m-479.7 1190.4c-0.3-0.3-0.4-0.8-0.2-1.3c2.9-6.2 1.4-13.3-3.6-18.1c-0.5-0.4-0.5-1.2 0-1.6c0.4-0.4 1.2-0.4 1.7 0c5.7 5.5 7.4 13.6 4.1 20.6c-0.3 0.6-1 0.9-1.6 0.6q-0.2-0.1-0.4-0.2z" />
				</g>
				<path id="&lt;Path&gt;" class="s5" d="m-469.8 1182.6c0 12.7-10.9 23-24.3 23c-13.5 0-24.3-10.3-24.3-23c0-12.7 10.8-23 24.3-23c13.4 0 24.3 10.3 24.3 23z" />
				<path id="&lt;Path&gt;" class="s0" d="m-479 1215.9l-4.9 2.3l-7.7-14.4l4.9-2.3z" />
			</g>
		</g>
		<g id="&lt;Group&gt;">
			<g id="&lt;Group&gt;">
				<path id="&lt;Compound Path&gt;" class="s6" d="m-830.9 227.4v12.3h12.7v9.2c0 1.2 1 2.2 2.3 2.2h0.2c1.3 0 2.3-1 2.3-2.2v-9.2h12.7v-12.3h31.1v100.5h-31.1v-42.7h-5.7v11h-19.7v-8.7c0-1.3-1-2.3-2.3-2.3h-0.2c-1.2 0-2.3 1-2.3 2.3v40.4h-32v-100.5z" />
				<path id="&lt;Compound Path&gt;" class="s6" d="m-684.6 227.4v12.3h12v11.8h12.6v10.1c0 1.2 1.1 2.2 2.3 2.2h0.2c1.3 0 2.3-1 2.3-2.2v-34.2h31.1v100.5h-31.1v-12.3h-12.7v-11.8h-12.7v-10.1c0-1.2-1-2.2-2.2-2.2h-0.3c-1.2 0-2.2 1-2.2 2.2v34.2h-32v-100.5z" />
				<path id="&lt;Compound Path&gt;" class="s6" d="m-537.7 227.4v26.5h-42.8v10.3h42.8v26.9h-42.8v10.2h42.8v26.6h-76v-100.5z" />
				<path id="&lt;Compound Path&gt;" class="s6" d="m-394.6 301.3v-10.2h-46.7v-63.7h79.1v26.5h-46.7v10.3h46.7v63.7h-79.1v-26.6z" />
			</g>
			<g id="&lt;Group&gt;">
				<g id="&lt;Group&gt;">
					<path id="&lt;Path&gt;" class="s7" d="m-729.3 325v3.7c0 1.1-1.2 1.9-2.6 1.9h-22.2c-1.5 0-2.7-0.8-2.7-1.9v-3.7z" />
				</g>
				<g id="&lt;Group&gt;">
					<g id="&lt;Group&gt;">
						<g id="&lt;Group&gt;">
							<path id="&lt;Path&gt;" class="s7" d="m-747.6 325.8v-93.6h9.2l-0.1 93.6z" />
						</g>
						<path id="&lt;Path&gt;" class="s8" d="m-756.8 325.8v-93.6h9.2v93.6z" />
						<path id="&lt;Path&gt;" class="s8" d="m-738.5 325.8l0.1-93.6h9.1v93.6z" />
					</g>
					<path id="&lt;Path&gt;" class="s9" d="m-756.8 232.2l13.8-17.7l13.7 17.7z" />
					<g id="&lt;Group&gt;">
						<path id="&lt;Path&gt;" class="s7" d="m-747.6 220.4l4.6-5.9l4.6 6z" />
					</g>
				</g>
			</g>
		</g>
		<g id="&lt;Group&gt;">
			<g id="&lt;Group&gt;">
				<path id="&lt;Compound Path&gt;" class="s10" d="m-888.4 70.9h5.4q0.7 0.1 0.7 0.6v5.1q0 0.6-0.7 0.6h-5.4q-0.6 0-0.6-0.6v-5.1q0.1-0.6 0.6-0.6zm0 18.9h5.4q0.7 0.1 0.7 0.7v5q0 0.7-0.7 0.7h-5.4q-0.6 0-0.6-0.7v-5q0.1-0.7 0.6-0.7zm0 9.5h5.4q0.7 0.1 0.7 0.7v5q0 0.6-0.7 0.6h-5.4q-0.6 0-0.6-0.6v-5q0.1-0.7 0.6-0.7zm0 19h5.4q0.7 0.1 0.7 0.6v5.1q0 0.6-0.7 0.6h-5.4q-0.6 0-0.6-0.6v-5.1q0.1-0.6 0.6-0.6zm0 18.9h5.4q0.7 0.1 0.7 0.7v5q0 0.6-0.7 0.6h-5.4q-0.6 0-0.6-0.6v-5q0.1-0.7 0.6-0.7zm0 19h5.4q0.7 0.1 0.7 0.6v5.1q0 0.6-0.7 0.6h-5.4q-0.6 0-0.6-0.6v-5.1q0.1-0.6 0.6-0.6zm0 9.5h5.4q0.7 0 0.7 0.6v5q0 0.7-0.7 0.7h-5.4q-0.6 0-0.6-0.7v-5q0.1-0.6 0.6-0.6zm0 18.9h5.4q0.7 0.1 0.7 0.6v5.1q0 0.6-0.7 0.6h-5.4q-0.6 0-0.6-0.6v-5.1q0.1-0.6 0.6-0.6zm0 19h5.4q0.7 0 0.7 0.6v5q0 0.7-0.7 0.7h-5.4q-0.6 0-0.6-0.7v-5q0.1-0.6 0.6-0.6zm10.2-132.7h5.4q0.6 0.1 0.6 0.6v5.1q0 0.6-0.6 0.6h-5.4q-0.7 0-0.7-0.6v-5.1q0.1-0.6 0.7-0.6zm0 9.5h5.4q0.6 0.1 0.6 0.6v5.1q0 0.6-0.6 0.6h-5.4q-0.7 0-0.7-0.6v-5.1q0.1-0.6 0.7-0.6zm0 9.4h5.4q0.6 0.1 0.6 0.7v5q0 0.7-0.6 0.7h-5.4q-0.7 0-0.7-0.7v-5q0.1-0.7 0.7-0.7zm0 19h5.4q0.6 0.1 0.6 0.6v5.1q0 0.6-0.6 0.6h-5.4q-0.7 0-0.7-0.6v-5.1q0.1-0.6 0.7-0.6zm0 9.5h5.4q0.6 0.1 0.6 0.6v5.1q0 0.6-0.6 0.6h-5.4q-0.7 0-0.7-0.6v-5.1q0.1-0.6 0.7-0.6zm0 9.5h5.4q0.6 0 0.6 0.6v5q0 0.7-0.6 0.7h-5.4q-0.7 0-0.7-0.7v-5q0.1-0.6 0.7-0.6zm0 18.9h5.4q0.6 0.1 0.6 0.6v5.1q0 0.6-0.6 0.6h-5.4q-0.7 0-0.7-0.6v-5.1q0.1-0.6 0.7-0.6zm0 19h5.4q0.6 0 0.6 0.6v5q0 0.7-0.6 0.7h-5.4q-0.7 0-0.7-0.7v-5q0.1-0.6 0.7-0.6zm0 9.4h5.4q0.6 0.1 0.6 0.7v5q0 0.6-0.6 0.6h-5.4q-0.7 0-0.7-0.6v-5q0.1-0.7 0.7-0.7zm0 9.5h5.4q0.6 0.1 0.6 0.6v5.1q0 0.6-0.6 0.6h-5.4q-0.7 0-0.7-0.6v-5.1q0.1-0.6 0.7-0.6zm0 9.5h5.4q0.6 0.1 0.6 0.6v5.1q0 0.6-0.6 0.6h-5.4q-0.7 0-0.7-0.6v-5.1q0.1-0.6 0.7-0.6zm0 18.9h5.4q0.6 0.1 0.6 0.7v5q0 0.6-0.6 0.6h-5.4q-0.7 0-0.7-0.6v-5q0.1-0.7 0.7-0.7zm10.1-132.6h5.4q0.7 0.1 0.7 0.6v5.1q0 0.6-0.7 0.6h-5.4q-0.7 0-0.7-0.6v-5.1q0.1-0.6 0.7-0.6zm0 18.9h5.4q0.7 0.1 0.7 0.7v5q0 0.6-0.7 0.6h-5.4q-0.7 0-0.7-0.6v-5q0.1-0.7 0.7-0.7zm0 9.5h5.4q0.7 0.1 0.7 0.6v5.1q0 0.6-0.7 0.6h-5.4q-0.7 0-0.7-0.6v-5.1q0.1-0.6 0.7-0.6zm0 28.4h5.4q0.7 0.1 0.7 0.7v5q0 0.6-0.7 0.6h-5.4q-0.7 0-0.7-0.6v-5q0.1-0.7 0.7-0.7zm0 9.5h5.4q0.7 0.1 0.7 0.6v5.1q0 0.6-0.7 0.6h-5.4q-0.7 0-0.7-0.6v-5.1q0.1-0.6 0.7-0.6zm0 19h5.4q0.7 0 0.7 0.6v5q0 0.7-0.7 0.7h-5.4q-0.7 0-0.7-0.7v-5q0.1-0.6 0.7-0.6zm0 9.4h5.4q0.7 0.1 0.7 0.7v5q0 0.6-0.7 0.6h-5.4q-0.7 0-0.7-0.6v-5q0.1-0.7 0.7-0.7zm0 19h5.4q0.7 0.1 0.7 0.6v5.1q0 0.6-0.7 0.6h-5.4q-0.7 0-0.7-0.6v-5.1q0.1-0.6 0.7-0.6zm0 9.5h5.4q0.7 0 0.7 0.6v5q0 0.7-0.7 0.7h-5.4q-0.7 0-0.7-0.7v-5q0.1-0.6 0.7-0.6zm10.1-132.7h5.4q0.7 0.1 0.7 0.6v5.1q0 0.6-0.7 0.6h-5.4q-0.7 0-0.7-0.6v-5.1q0.1-0.6 0.7-0.6zm0 9.5h5.4q0.7 0.1 0.7 0.6v5.1q0 0.6-0.7 0.6h-5.4q-0.7 0-0.7-0.6v-5.1q0.1-0.6 0.7-0.6zm0 9.4h5.4q0.7 0.1 0.7 0.7v5q0 0.7-0.7 0.7h-5.4q-0.7 0-0.7-0.7v-5q0.1-0.7 0.7-0.7zm0 9.5h5.4q0.7 0.1 0.7 0.7v5q0 0.6-0.7 0.6h-5.4q-0.7 0-0.7-0.6v-5q0.1-0.7 0.7-0.7zm0 9.5h5.4q0.7 0.1 0.7 0.6v5.1q0 0.6-0.7 0.6h-5.4q-0.7 0-0.7-0.6v-5.1q0.1-0.6 0.7-0.6zm0 9.5h5.4q0.7 0.1 0.7 0.6v5.1q0 0.6-0.7 0.6h-5.4q-0.7 0-0.7-0.6v-5.1q0.1-0.6 0.7-0.6zm0 9.5h5.4q0.7 0 0.7 0.6v5q0 0.7-0.7 0.7h-5.4q-0.7 0-0.7-0.7v-5q0.1-0.6 0.7-0.6zm0 9.4h5.4q0.7 0.1 0.7 0.7v5q0 0.6-0.7 0.6h-5.4q-0.7 0-0.7-0.6v-5q0.1-0.7 0.7-0.7zm0 9.5h5.4q0.7 0.1 0.7 0.6v5.1q0 0.6-0.7 0.6h-5.4q-0.7 0-0.7-0.6v-5.1q0.1-0.6 0.7-0.6zm0 9.5h5.4q0.7 0.1 0.7 0.6v5.1q0 0.6-0.7 0.6h-5.4q-0.7 0-0.7-0.6v-5.1q0.1-0.6 0.7-0.6zm0 9.5h5.4q0.7 0 0.7 0.6v5q0 0.7-0.7 0.7h-5.4q-0.7 0-0.7-0.7v-5q0.1-0.6 0.7-0.6zm0 9.4h5.4q0.7 0.1 0.7 0.7v5q0 0.6-0.7 0.6h-5.4q-0.7 0-0.7-0.6v-5q0.1-0.7 0.7-0.7zm0 9.5h5.4q0.7 0.1 0.7 0.6v5.1q0 0.6-0.7 0.6h-5.4q-0.7 0-0.7-0.6v-5.1q0.1-0.6 0.7-0.6zm0 9.5h5.4q0.7 0.1 0.7 0.6v5.1q0 0.6-0.7 0.6h-5.4q-0.7 0-0.7-0.6v-5.1q0.1-0.6 0.7-0.6zm0 9.5h5.4q0.7 0 0.7 0.6v5q0 0.7-0.7 0.7h-5.4q-0.7 0-0.7-0.7v-5q0.1-0.6 0.7-0.6zm0 9.4h5.4q0.7 0.1 0.7 0.7v5q0 0.6-0.7 0.6h-5.4q-0.7 0-0.7-0.6v-5q0.1-0.7 0.7-0.7z" />
			</g>
			<g id="&lt;Group&gt;">
				<path id="&lt;Compound Path&gt;" fill-rule="evenodd" class="s10" d="m-758.2 70.8v13.5h13.4v121.6h-13.4v13.5h-104.6v-148.6zm-55.5 108.8h19.9v-69h-19.9z" />
				<path id="&lt;Compound Path&gt;" fill-rule="evenodd" class="s10" d="m-615.9 70.8v148.6h-48.5v-39.8h-16.5v39.8h-48.5v-148.6zm-64.4 72.6h15.3v-37.5h-15.3z" />
				<path id="&lt;Compound Path&gt;" class="s10" d="m-601.9 110.1v-39.3h113.5v39.3h-32.2v109.3h-49.1v-109.3z" />
				<path id="&lt;Compound Path&gt;" fill-rule="evenodd" class="s10" d="m-362.2 70.8v148.6h-48.5v-39.8h-16.5v39.8h-48.5v-148.6zm-64.4 72.6h15.3v-37.5h-15.3z" />
			</g>
			<g id="&lt;Group&gt;">
				<g id="&lt;Group&gt;">
					<g id="&lt;Group&gt;">
						<path id="&lt;Path&gt;" class="s7" d="m-842.2 41.9c-2 0.4-3.7-1.5-3.2-3.4c1.3-5 3.3-12.7 3.6-13.3c0.7-1.7 6.9-6.2 18.7-9.6c11.7-3.4 23.5-2.2 32.4 0.6c9.6 3.1 16.5 9.7 17 10.2q0.5 0.5 0.8 3.1z" />
					</g>
					<path id="&lt;Path&gt;" class="s8" d="m-849.7 72.8c-1.7 0-3-1.4-2.9-3.1c0.2-2 0.5-4.8 1-8c1.1-7.9 4.1-18.3 7.5-24.1c6.7-11.3 19.8-19.3 31.7-21c11.8-1.8 26.4 0.3 38.4 11.8c10.7 10.3 15.5 31.6 16.8 40.1c0.2 1.7-1.1 3.2-2.8 3.2z" />
					<g id="&lt;Group&gt;">
						<path id="&lt;Path&gt;" class="s7" d="m-842 68.3c17.4 2.2 46.6 2.9 82.2-3.3c1.1-0.2 2.3 0.4 2.9 1.4c0.8 1.4 1.6 2.8 2.4 4.1c1 1.6 0.1 3.7-1.7 4.1c-7.2 1.9-25.3 5.2-50.4 5.7c-34.2 0.6-54.9-2.1-58.9-2.9c-3.6-0.7-3.8-2.8-2.7-3.5c6.9-4.6 9.8-6.3 14.2-10.1c1.2-0.9 2.9-0.8 3.9 0.3c1.4 1.7 3.9 3.7 8.1 4.2z" />
					</g>
					<g id="&lt;Group&gt;">
						<path id="&lt;Path&gt;" class="s7" d="m-813.8 63.5l0.1 5.8c0 1.3-1 2.3-2.3 2.4l-15.5 0.3c-1.3 0-2.3-1-2.3-2.3l-0.2-5.8c0-2.5 1.9-4.5 4.4-4.6l11.2-0.2c2.5 0 4.5 1.9 4.6 4.4z" />
					</g>
					<g id="&lt;Group&gt;">
						<path id="&lt;Path&gt;" class="s7" d="m-776.1 62.7l0.1 5.8c0.1 1.3-1 2.4-2.2 2.4l-15.5 0.3c-1.3 0-2.4-1-2.4-2.3l-0.1-5.8c-0.1-2.4 1.9-4.5 4.3-4.5l11.3-0.2c2.4-0.1 4.5 1.9 4.5 4.3z" />
					</g>
					<g id="&lt;Group&gt;">
						<path id="&lt;Path&gt;" class="s7" d="m-841.6 42.8c-1.1-0.7 12.5-21.4 34.8-21.8c22.7-0.5 32.1 12.2 32.1 13.5c0.1 1.4-11.8-5.2-31-4c-20.6 1.3-33.8 13.7-35.9 12.3z" />
					</g>
				</g>
			</g>
		</g>
		<g id="&lt;Group&gt;">
			<g id="&lt;Group&gt;">
				<path id="&lt;Compound Path&gt;" class="s8" d="m-502.3 227.4v100.5h-22.6v-100.5z" />
			</g>
			<g id="&lt;Group&gt;">
				<path id="&lt;Path&gt;" class="s8" d="m-457.6 327c-4.2 2-9.3 0.4-11.4-3.5l-16.3-30.6c-2.1-4-0.4-8.8 3.8-10.8c4.2-2 9.3-0.4 11.4 3.5l16.3 30.6c2.1 4 0.4 8.8-3.8 10.8z" />
				<g id="&lt;Group&gt;">
					<path id="&lt;Path&gt;" class="s4" d="m-459.5 311.7q-0.2 0-0.3-0.2l-2.1-4c-0.1-0.2 0-0.5 0.2-0.6c0.3-0.2 0.6-0.1 0.8 0.2l2.1 3.9c0.1 0.3 0 0.6-0.3 0.7q-0.2 0.1-0.4 0z" />
					<path id="&lt;Path&gt;" class="s4" d="m-462.4 306.2q-0.2 0-0.4-0.2c-2.3-4.5-4.8-9.1-7.2-13.5c-0.2-0.3-0.1-0.6 0.2-0.7c0.3-0.2 0.6-0.1 0.7 0.2c2.5 4.4 4.9 9 7.3 13.5c0.1 0.3 0 0.6-0.2 0.7q-0.2 0.1-0.4 0z" />
				</g>
				<g id="&lt;Group&gt;">
					<path id="&lt;Path&gt;" class="s8" d="m-480.4 267.1c-0.5-0.5-0.5-1.2 0-1.6q1.2-1.2 2.2-2.7c0.4-0.5 1.1-0.6 1.7-0.3c0.5 0.4 0.7 1.1 0.3 1.6q-1.1 1.6-2.6 3c-0.4 0.4-1.2 0.4-1.6 0z" />
					<path id="&lt;Path&gt;" class="s8" d="m-476.6 261.7c-0.3-0.3-0.4-0.8-0.2-1.2c2.9-6.2 1.4-13.4-3.6-18.2c-0.5-0.4-0.5-1.1 0-1.6c0.4-0.4 1.2-0.4 1.6 0c5.8 5.5 7.4 13.6 4.2 20.7c-0.3 0.5-1 0.8-1.6 0.6q-0.2-0.1-0.4-0.3z" />
				</g>
				<path id="&lt;Path&gt;" class="s11" d="m-466.7 253.9c0 12.7-10.9 23-24.3 23c-13.5 0-24.4-10.3-24.4-23c0-12.7 10.9-23 24.4-23c13.4 0 24.3 10.3 24.3 23z" />
				<path id="&lt;Path&gt;" class="s8" d="m-475.9 287.3l-4.9 2.3l-7.7-14.4l4.9-2.3z" />
			</g>
		</g>
		<g id="&lt;Group&gt;">
			<g id="&lt;Group&gt;">
				<path id="&lt;Compound Path&gt;" class="s12" d="m84.8 1157.9v12.3h12.7v9.1c0 1.3 1 2.3 2.2 2.3h0.3c1.2 0 2.2-1 2.2-2.3v-9.1h12.7v-12.3h31.1v100.4h-31.1v-42.7h-5.6v11.1h-19.8v-8.8c0-1.2-1-2.3-2.2-2.3h-0.3c-1.2 0-2.2 1.1-2.2 2.3v40.4h-32v-100.4z" />
				<path id="&lt;Compound Path&gt;" class="s12" d="m231.1 1157.9v12.3h11.9v11.7h12.7v10.1c0 1.2 1 2.2 2.2 2.2h0.3c1.2 0 2.2-1 2.2-2.2v-34.1h31.1v100.4h-31.1v-12.3h-12.7v-11.8h-12.6v-10c0-1.3-1.1-2.3-2.3-2.3h-0.2c-1.3 0-2.3 1-2.3 2.3v34.1h-32v-100.4z" />
				<path id="&lt;Compound Path&gt;" class="s12" d="m377.9 1157.9v26.5h-42.8v10.2h42.8v26.9h-42.8v10.3h42.8v26.5h-76v-100.4z" />
				<path id="&lt;Compound Path&gt;" class="s12" d="m521 1231.8v-10.3h-46.6v-63.6h79v26.5h-46.6v10.2h46.6v63.7h-79v-26.5z" />
			</g>
			<g id="&lt;Group&gt;">
				<path id="&lt;Path&gt;" class="s13" d="m186.3 1255.5v3.6c0 1.1-1.1 2-2.6 2h-22.2c-1.5 0-2.6-0.9-2.6-2v-3.6z" />
				<g id="&lt;Group&gt;">
					<g id="&lt;Group&gt;">
						<path id="&lt;Path&gt;" class="s13" d="m168 1256.2v-93.6h9.2v93.6z" />
						<path id="&lt;Path&gt;" class="s12" d="m158.9 1256.2v-93.6h9.1v93.6z" />
						<path id="&lt;Path&gt;" class="s12" d="m177.2 1256.2v-93.6h9.2l-0.1 93.6z" />
					</g>
					<path id="&lt;Path&gt;" class="s14" d="m158.9 1162.6l13.7-17.6l13.8 17.6z" />
					<path id="&lt;Path&gt;" class="s13" d="m168 1150.9l4.6-5.9l4.6 5.9z" />
				</g>
			</g>
		</g>
		<g id="&lt;Group&gt;">
			<g id="&lt;Group&gt;">
				<path id="&lt;Compound Path&gt;" class="s12" d="m27.3 1001.3h5.4q0.6 0.1 0.6 0.7v5q0 0.7-0.6 0.7h-5.4q-0.7 0-0.7-0.7v-5q0.1-0.7 0.7-0.7zm0 19h5.4q0.6 0.1 0.6 0.6v5.1q0 0.6-0.6 0.6h-5.4q-0.7 0-0.7-0.6v-5.1q0.1-0.6 0.7-0.6zm0 9.5h5.4q0.6 0 0.6 0.6v5q0 0.7-0.6 0.7h-5.4q-0.7 0-0.7-0.7v-5q0.1-0.6 0.7-0.6zm0 18.9h5.4q0.6 0.1 0.6 0.6v5.1q0 0.6-0.6 0.6h-5.4q-0.7 0-0.7-0.6v-5.1q0.1-0.6 0.7-0.6zm0 19h5.4q0.6 0 0.6 0.6v5q0 0.7-0.6 0.7h-5.4q-0.7 0-0.7-0.7v-5q0.1-0.6 0.7-0.6zm0 18.9h5.4q0.6 0.1 0.6 0.6v5.1q0 0.6-0.6 0.6h-5.4q-0.7 0-0.7-0.6v-5.1q0.1-0.6 0.7-0.6zm0 9.5h5.4q0.6 0.1 0.6 0.6v5.1q0 0.6-0.6 0.6h-5.4q-0.7 0-0.7-0.6v-5.1q0.1-0.6 0.7-0.6zm0 18.9h5.4q0.6 0.1 0.6 0.7v5q0 0.7-0.6 0.7h-5.4q-0.7 0-0.7-0.7v-5q0.1-0.7 0.7-0.7zm0 19h5.4q0.6 0.1 0.6 0.6v5.1q0 0.6-0.6 0.6h-5.4q-0.7 0-0.7-0.6v-5.1q0.1-0.6 0.7-0.6zm10.1-132.7h5.4q0.7 0.1 0.7 0.7v5q0 0.7-0.7 0.7h-5.4q-0.7 0-0.7-0.7v-5q0.1-0.7 0.7-0.7zm0 9.5h5.4q0.7 0.1 0.7 0.6v5.1q0 0.6-0.7 0.6h-5.4q-0.7 0-0.7-0.6v-5.1q0.1-0.6 0.7-0.6zm0 9.5h5.4q0.7 0.1 0.7 0.6v5.1q0 0.6-0.7 0.6h-5.4q-0.7 0-0.7-0.6v-5.1q0.1-0.6 0.7-0.6zm0 18.9h5.4q0.7 0.1 0.7 0.7v5q0 0.7-0.7 0.7h-5.4q-0.7 0-0.7-0.7v-5q0.1-0.7 0.7-0.7zm0 9.5h5.4q0.7 0.1 0.7 0.6v5.1q0 0.6-0.7 0.6h-5.4q-0.7 0-0.7-0.6v-5.1q0.1-0.6 0.7-0.6zm0 9.5h5.4q0.7 0.1 0.7 0.6v5.1q0 0.6-0.7 0.6h-5.4q-0.7 0-0.7-0.6v-5.1q0.1-0.6 0.7-0.6zm0 18.9h5.4q0.7 0.1 0.7 0.7v5q0 0.7-0.7 0.7h-5.4q-0.7 0-0.7-0.7v-5q0.1-0.7 0.7-0.7zm0 19h5.4q0.7 0.1 0.7 0.6v5.1q0 0.6-0.7 0.6h-5.4q-0.7 0-0.7-0.6v-5.1q0.1-0.6 0.7-0.6zm0 9.5h5.4q0.7 0 0.7 0.6v5q0 0.7-0.7 0.7h-5.4q-0.7 0-0.7-0.7v-5q0.1-0.6 0.7-0.6zm0 9.4h5.4q0.7 0.1 0.7 0.7v5q0 0.7-0.7 0.7h-5.4q-0.7 0-0.7-0.7v-5q0.1-0.7 0.7-0.7zm0 9.5h5.4q0.7 0.1 0.7 0.6v5.1q0 0.6-0.7 0.6h-5.4q-0.7 0-0.7-0.6v-5.1q0.1-0.6 0.7-0.6zm0 19h5.4q0.7 0 0.7 0.6v5q0 0.7-0.7 0.7h-5.4q-0.7 0-0.7-0.7v-5q0.1-0.6 0.7-0.6zm10.1-132.7h5.4q0.7 0.1 0.7 0.6v5.1q0 0.6-0.7 0.6h-5.4q-0.7 0-0.7-0.6v-5.1q0.1-0.6 0.7-0.6zm0 19h5.4q0.7 0 0.7 0.6v5q0 0.7-0.7 0.7h-5.4q-0.7 0-0.7-0.7v-5q0.1-0.6 0.7-0.6zm0 9.4h5.4q0.7 0.1 0.7 0.7v5q0 0.7-0.7 0.7h-5.4q-0.7 0-0.7-0.7v-5q0.1-0.7 0.7-0.7zm0 28.5h5.4q0.7 0 0.7 0.6v5q0 0.7-0.7 0.7h-5.4q-0.7 0-0.7-0.7v-5q0.1-0.6 0.7-0.6zm0 9.4h5.4q0.7 0.1 0.7 0.7v5q0 0.7-0.7 0.7h-5.4q-0.7 0-0.7-0.7v-5q0.1-0.7 0.7-0.7zm0 19h5.4q0.7 0.1 0.7 0.6v5.1q0 0.6-0.7 0.6h-5.4q-0.7 0-0.7-0.6v-5.1q0.1-0.6 0.7-0.6zm0 9.5h5.4q0.7 0 0.7 0.6v5q0 0.7-0.7 0.7h-5.4q-0.7 0-0.7-0.7v-5q0.1-0.6 0.7-0.6zm0 18.9h5.4q0.7 0.1 0.7 0.6v5.1q0 0.6-0.7 0.6h-5.4q-0.7 0-0.7-0.6v-5.1q0.1-0.6 0.7-0.6zm0 9.5h5.4q0.7 0.1 0.7 0.6v5.1q0 0.6-0.7 0.6h-5.4q-0.7 0-0.7-0.6v-5.1q0.1-0.6 0.7-0.6zm10.1-132.7h5.4q0.7 0.1 0.7 0.7v5q0 0.7-0.7 0.7h-5.4q-0.6 0-0.6-0.7v-5q0-0.7 0.6-0.7zm0 9.5h5.4q0.7 0.1 0.7 0.6v5.1q0 0.6-0.7 0.6h-5.4q-0.6 0-0.6-0.6v-5.1q0-0.6 0.6-0.6zm0 9.5h5.4q0.7 0.1 0.7 0.6v5.1q0 0.6-0.7 0.6h-5.4q-0.6 0-0.6-0.6v-5.1q0-0.6 0.6-0.6zm0 9.5h5.4q0.7 0 0.7 0.6v5q0 0.7-0.7 0.7h-5.4q-0.6 0-0.6-0.7v-5q0-0.6 0.6-0.6zm0 9.4h5.4q0.7 0.1 0.7 0.7v5q0 0.7-0.7 0.7h-5.4q-0.6 0-0.6-0.7v-5q0-0.7 0.6-0.7zm0 9.5h5.4q0.7 0.1 0.7 0.6v5.1q0 0.6-0.7 0.6h-5.4q-0.6 0-0.6-0.6v-5.1q0-0.6 0.6-0.6zm0 9.5h5.4q0.7 0.1 0.7 0.6v5.1q0 0.6-0.7 0.6h-5.4q-0.6 0-0.6-0.6v-5.1q0-0.6 0.6-0.6zm0 9.5h5.4q0.7 0 0.7 0.6v5q0 0.7-0.7 0.7h-5.4q-0.6 0-0.6-0.7v-5q0-0.6 0.6-0.6zm0 9.4h5.4q0.7 0.1 0.7 0.7v5q0 0.7-0.7 0.7h-5.4q-0.6 0-0.6-0.7v-5q0-0.7 0.6-0.7zm0 9.5h5.4q0.7 0.1 0.7 0.6v5.1q0 0.6-0.7 0.6h-5.4q-0.6 0-0.6-0.6v-5.1q0-0.6 0.6-0.6zm0 9.5h5.4q0.7 0.1 0.7 0.6v5.1q0 0.6-0.7 0.6h-5.4q-0.6 0-0.6-0.6v-5.1q0-0.6 0.6-0.6zm0 9.5h5.4q0.7 0 0.7 0.6v5q0 0.7-0.7 0.7h-5.4q-0.6 0-0.6-0.7v-5q0-0.6 0.6-0.6zm0 9.4h5.4q0.7 0.1 0.7 0.7v5q0 0.7-0.7 0.7h-5.4q-0.6 0-0.6-0.7v-5q0-0.7 0.6-0.7zm0 9.5h5.4q0.7 0.1 0.7 0.6v5.1q0 0.6-0.7 0.6h-5.4q-0.6 0-0.6-0.6v-5.1q0-0.6 0.6-0.6zm0 9.5h5.4q0.7 0.1 0.7 0.6v5.1q0 0.6-0.7 0.6h-5.4q-0.6 0-0.6-0.6v-5.1q0-0.6 0.6-0.6zm0 9.5h5.4q0.7 0 0.7 0.6v5q0 0.7-0.7 0.7h-5.4q-0.6 0-0.6-0.7v-5q0-0.6 0.6-0.6z" />
			</g>
			<g id="&lt;Group&gt;">
				<path id="&lt;Compound Path&gt;" fill-rule="evenodd" class="s12" d="m157.4 1001.3v13.4h13.5v121.7h-13.5v13.4h-104.6v-148.5zm-55.5 108.7h19.9v-68.9h-19.9z" />
				<path id="&lt;Compound Path&gt;" fill-rule="evenodd" class="s12" d="m299.7 1001.3v148.5h-48.5v-39.8h-16.5v39.8h-48.5v-148.5zm-64.4 72.6h15.3v-37.6h-15.3z" />
				<path id="&lt;Compound Path&gt;" class="s12" d="m313.7 1040.5v-39.2h113.5v39.2h-32.2v109.3h-49.1v-109.3z" />
				<path id="&lt;Compound Path&gt;" fill-rule="evenodd" class="s12" d="m553.4 1001.3v148.5h-48.5v-39.8h-16.5v39.8h-48.5v-148.5zm-64.4 72.6h15.3v-37.6h-15.3z" />
			</g>
			<g id="&lt;Group&gt;">
				<g id="&lt;Group&gt;">
					<path id="&lt;Path&gt;" class="s13" d="m73.4 972.4c-2 0.3-3.7-1.5-3.2-3.5c1.3-5 3.4-12.7 3.6-13.2c0.8-1.8 7-6.3 18.7-9.7c11.8-3.4 23.5-2.2 32.5 0.7c9.5 3 16.4 9.7 16.9 10.2q0.5 0.4 0.8 3z" />
					<path id="&lt;Path&gt;" class="s12" d="m65.9 1003.2c-1.7 0-3-1.4-2.8-3c0.2-2 0.5-4.8 0.9-8c1.2-7.9 4.1-18.4 7.6-24.1c6.7-11.4 19.8-19.3 31.6-21.1c11.8-1.8 26.5 0.3 38.5 11.9c10.6 10.2 15.5 31.6 16.7 40c0.3 1.7-1 3.2-2.7 3.2z" />
					<path id="&lt;Path&gt;" class="s13" d="m73.6 998.8c17.4 2.1 46.6 2.8 82.2-3.3c1.2-0.2 2.3 0.3 2.9 1.3c0.8 1.4 1.7 2.9 2.4 4.1c1 1.6 0.2 3.7-1.7 4.2c-7.2 1.9-25.3 5.1-50.3 5.6c-34.3 0.7-54.9-2.1-58.9-2.9c-3.6-0.7-3.9-2.7-2.8-3.5c7-4.6 9.8-6.3 14.2-10c1.2-1 3-0.9 3.9 0.3c1.4 1.6 4 3.7 8.1 4.2z" />
					<path id="&lt;Path&gt;" class="s13" d="m101.8 993.9l0.1 5.8c0 1.3-1 2.4-2.3 2.4l-15.4 0.3c-1.3 0-2.4-1-2.4-2.3l-0.1-5.8c-0.1-2.4 1.9-4.5 4.3-4.5l11.3-0.2c2.4-0.1 4.4 1.9 4.5 4.3z" />
					<path id="&lt;Path&gt;" class="s13" d="m139.6 993.2l0.1 5.8c0 1.3-1 2.3-2.3 2.3l-15.5 0.4c-1.3 0-2.3-1-2.4-2.3l-0.1-5.8c0-2.5 1.9-4.5 4.4-4.6l11.2-0.2c2.5 0 4.5 1.9 4.6 4.4z" />
					<path id="&lt;Path&gt;" class="s13" d="m74 973.2c-1-0.7 12.6-21.3 34.9-21.8c22.7-0.4 32 12.2 32.1 13.6c0 1.3-11.8-5.3-31-4.1c-20.7 1.3-33.8 13.8-36 12.3z" />
				</g>
			</g>
		</g>
		<g id="&lt;Group&gt;">
			<g id="&lt;Group&gt;">
				<path id="&lt;Compound Path&gt;" class="s12" d="m413.3 1157.9v100.4h-22.6v-100.4z" />
			</g>
			<g id="&lt;Group&gt;">
				<path id="&lt;Path&gt;" class="s12" d="m458.1 1257.4c-4.2 2-9.3 0.4-11.4-3.5l-16.4-30.6c-2.1-4-0.4-8.8 3.8-10.8c4.2-2 9.3-0.4 11.4 3.6l16.3 30.6c2.1 3.9 0.5 8.7-3.7 10.7z" />
				<g id="&lt;Group&gt;">
					<path id="&lt;Path&gt;" class="s4" d="m456.1 1242.2q-0.2-0.1-0.3-0.3l-2.1-3.9c-0.1-0.3 0-0.6 0.3-0.7c0.2-0.1 0.5 0 0.7 0.2l2.1 4c0.1 0.2 0 0.5-0.2 0.6q-0.2 0.1-0.5 0.1z" />
					<path id="&lt;Path&gt;" class="s4" d="m453.2 1236.7q-0.2-0.1-0.3-0.3c-2.4-4.5-4.8-9.1-7.3-13.5c-0.1-0.3 0-0.6 0.2-0.7c0.3-0.1 0.6 0 0.8 0.2c2.4 4.5 4.9 9 7.2 13.6c0.2 0.2 0.1 0.5-0.2 0.6q-0.2 0.1-0.4 0.1z" />
				</g>
				<g id="&lt;Group&gt;">
					<path id="&lt;Path&gt;" class="s12" d="m435.2 1197.5c-0.5-0.5-0.5-1.2 0-1.6q1.3-1.2 2.2-2.6c0.4-0.5 1.1-0.7 1.7-0.3c0.5 0.3 0.7 1 0.3 1.5q-1.1 1.6-2.5 3c-0.5 0.4-1.2 0.4-1.7 0z" />
					<path id="&lt;Path&gt;" class="s12" d="m439.1 1192.2c-0.4-0.4-0.5-0.9-0.3-1.3c2.9-6.2 1.5-13.3-3.6-18.1c-0.5-0.5-0.5-1.2 0-1.6c0.5-0.5 1.2-0.5 1.7 0c5.8 5.4 7.4 13.5 4.1 20.6c-0.3 0.6-1 0.8-1.6 0.6q-0.2-0.1-0.3-0.2z" />
				</g>
				<path id="&lt;Path&gt;" class="s15" d="m449 1184.3c0 12.7-10.9 23-24.4 23c-13.4 0-24.3-10.3-24.3-23c0-12.7 10.9-23 24.3-23c13.5 0 24.4 10.3 24.4 23z" />
				<path id="&lt;Path&gt;" class="s12" d="m439.7 1217.7l-4.8 2.3l-7.7-14.4l4.8-2.3z" />
			</g>
		</g>
		<g id="&lt;Group&gt;">
			<g id="&lt;Group&gt;">
				<path id="&lt;Compound Path&gt;" class="s16" d="m84.8 218.9v12.3h12.7v9.2c0 1.2 1 2.2 2.2 2.2h0.3c1.2 0 2.2-1 2.2-2.2v-9.2h12.7v-12.3h31.1v100.4h-31.1v-42.6h-5.6v11h-19.8v-8.8c0-1.2-1-2.2-2.2-2.2h-0.3c-1.2 0-2.2 1-2.2 2.2v40.4h-32v-100.4z" />
				<path id="&lt;Compound Path&gt;" class="s16" d="m231.1 218.9v12.3h11.9v11.8h12.7v10c0 1.3 1 2.3 2.2 2.3h0.3c1.2 0 2.2-1 2.2-2.3v-34.1h31.1v100.4h-31.1v-12.2h-12.7v-11.8h-12.6v-10.1c0-1.2-1.1-2.2-2.3-2.2h-0.2c-1.3 0-2.3 1-2.3 2.2v34.1h-32v-100.4z" />
				<path id="&lt;Compound Path&gt;" class="s16" d="m377.9 218.9v26.5h-42.8v10.3h42.8v26.9h-42.8v10.2h42.8v26.5h-76v-100.4z" />
				<path id="&lt;Compound Path&gt;" class="s16" d="m521 292.8v-10.2h-46.6v-63.7h79v26.5h-46.6v10.3h46.6v63.6h-79v-26.5z" />
			</g>
			<g id="&lt;Group&gt;">
				<path id="&lt;Path&gt;" class="s17" d="m186.3 316.5v3.7c0 1-1.1 1.9-2.6 1.9h-22.2c-1.5 0-2.6-0.9-2.6-1.9v-3.7z" />
				<g id="&lt;Group&gt;">
					<g id="&lt;Group&gt;">
						<path id="&lt;Path&gt;" class="s17" d="m168 317.3v-93.6h9.2v93.6z" />
						<path id="&lt;Path&gt;" class="s16" d="m158.9 317.3v-93.6h9.1v93.6z" />
						<path id="&lt;Path&gt;" class="s16" d="m177.2 317.3v-93.6h9.2l-0.1 93.6z" />
					</g>
					<path id="&lt;Path&gt;" class="s18" d="m158.9 223.7l13.7-17.7l13.8 17.7z" />
					<path id="&lt;Path&gt;" class="s17" d="m168 211.9l4.6-5.9l4.6 5.9z" />
				</g>
			</g>
		</g>
		<g id="&lt;Group&gt;">
			<g id="&lt;Group&gt;">
				<path id="&lt;Compound Path&gt;" class="s16" d="m27.3 62.4h5.4q0.6 0.1 0.6 0.6v5.1q0 0.6-0.6 0.6h-5.4q-0.7 0-0.7-0.6v-5.1q0.1-0.6 0.7-0.6zm0 18.9h5.4q0.6 0.1 0.6 0.7v5q0 0.6-0.6 0.6h-5.4q-0.7 0-0.7-0.6v-5q0.1-0.7 0.7-0.7zm0 9.5h5.4q0.6 0.1 0.6 0.6v5.1q0 0.6-0.6 0.6h-5.4q-0.7 0-0.7-0.6v-5.1q0.1-0.6 0.7-0.6zm0 19h5.4q0.6 0 0.6 0.6v5q0 0.7-0.6 0.7h-5.4q-0.7 0-0.7-0.7v-5q0.1-0.6 0.7-0.6zm0 18.9h5.4q0.6 0.1 0.6 0.6v5.1q0 0.6-0.6 0.6h-5.4q-0.7 0-0.7-0.6v-5.1q0.1-0.6 0.7-0.6zm0 19h5.4q0.6 0 0.6 0.6v5q0 0.7-0.6 0.7h-5.4q-0.7 0-0.7-0.7v-5q0.1-0.6 0.7-0.6zm0 9.4h5.4q0.6 0.1 0.6 0.7v5q0 0.7-0.6 0.7h-5.4q-0.7 0-0.7-0.7v-5q0.1-0.7 0.7-0.7zm0 19h5.4q0.6 0.1 0.6 0.6v5.1q0 0.6-0.6 0.6h-5.4q-0.7 0-0.7-0.6v-5.1q0.1-0.6 0.7-0.6zm0 18.9h5.4q0.6 0.1 0.6 0.7v5q0 0.7-0.6 0.7h-5.4q-0.7 0-0.7-0.7v-5q0.1-0.7 0.7-0.7zm10.1-132.6h5.4q0.7 0.1 0.7 0.6v5.1q0 0.6-0.7 0.6h-5.4q-0.7 0-0.7-0.6v-5.1q0.1-0.6 0.7-0.6zm0 9.5h5.4q0.7 0 0.7 0.6v5q0 0.7-0.7 0.7h-5.4q-0.7 0-0.7-0.7v-5q0.1-0.6 0.7-0.6zm0 9.4h5.4q0.7 0.1 0.7 0.7v5q0 0.6-0.7 0.6h-5.4q-0.7 0-0.7-0.6v-5q0.1-0.7 0.7-0.7zm0 19h5.4q0.7 0.1 0.7 0.6v5.1q0 0.6-0.7 0.6h-5.4q-0.7 0-0.7-0.6v-5.1q0.1-0.6 0.7-0.6zm0 9.5h5.4q0.7 0 0.7 0.6v5q0 0.7-0.7 0.7h-5.4q-0.7 0-0.7-0.7v-5q0.1-0.6 0.7-0.6zm0 9.4h5.4q0.7 0.1 0.7 0.7v5q0 0.6-0.7 0.6h-5.4q-0.7 0-0.7-0.6v-5q0.1-0.7 0.7-0.7zm0 19h5.4q0.7 0.1 0.7 0.6v5.1q0 0.6-0.7 0.6h-5.4q-0.7 0-0.7-0.6v-5.1q0.1-0.6 0.7-0.6zm0 18.9h5.4q0.7 0.1 0.7 0.7v5q0 0.7-0.7 0.7h-5.4q-0.7 0-0.7-0.7v-5q0.1-0.7 0.7-0.7zm0 9.5h5.4q0.7 0.1 0.7 0.6v5.1q0 0.6-0.7 0.6h-5.4q-0.7 0-0.7-0.6v-5.1q0.1-0.6 0.7-0.6zm0 9.5h5.4q0.7 0.1 0.7 0.6v5.1q0 0.6-0.7 0.6h-5.4q-0.7 0-0.7-0.6v-5.1q0.1-0.6 0.7-0.6zm0 9.5h5.4q0.7 0 0.7 0.6v5q0 0.7-0.7 0.7h-5.4q-0.7 0-0.7-0.7v-5q0.1-0.6 0.7-0.6zm0 18.9h5.4q0.7 0.1 0.7 0.6v5.1q0 0.6-0.7 0.6h-5.4q-0.7 0-0.7-0.6v-5.1q0.1-0.6 0.7-0.6zm10.1-132.6h5.4q0.7 0 0.7 0.6v5q0 0.7-0.7 0.7h-5.4q-0.7 0-0.7-0.7v-5q0.1-0.6 0.7-0.6zm0 18.9h5.4q0.7 0.1 0.7 0.6v5.1q0 0.6-0.7 0.6h-5.4q-0.7 0-0.7-0.6v-5.1q0.1-0.6 0.7-0.6zm0 9.5h5.4q0.7 0.1 0.7 0.6v5.1q0 0.6-0.7 0.6h-5.4q-0.7 0-0.7-0.6v-5.1q0.1-0.6 0.7-0.6zm0 28.4h5.4q0.7 0.1 0.7 0.6v5.1q0 0.6-0.7 0.6h-5.4q-0.7 0-0.7-0.6v-5.1q0.1-0.6 0.7-0.6zm0 9.5h5.4q0.7 0.1 0.7 0.6v5.1q0 0.6-0.7 0.6h-5.4q-0.7 0-0.7-0.6v-5.1q0.1-0.6 0.7-0.6zm0 18.9h5.4q0.7 0.1 0.7 0.7v5q0 0.7-0.7 0.7h-5.4q-0.7 0-0.7-0.7v-5q0.1-0.7 0.7-0.7zm0 9.5h5.4q0.7 0.1 0.7 0.6v5.1q0 0.6-0.7 0.6h-5.4q-0.7 0-0.7-0.6v-5.1q0.1-0.6 0.7-0.6zm0 19h5.4q0.7 0 0.7 0.6v5q0 0.7-0.7 0.7h-5.4q-0.7 0-0.7-0.7v-5q0.1-0.6 0.7-0.6zm0 9.4h5.4q0.7 0.1 0.7 0.7v5q0 0.7-0.7 0.7h-5.4q-0.7 0-0.7-0.7v-5q0.1-0.7 0.7-0.7zm10.1-132.6h5.4q0.7 0.1 0.7 0.6v5.1q0 0.6-0.7 0.6h-5.4q-0.6 0-0.6-0.6v-5.1q0-0.6 0.6-0.6zm0 9.5h5.4q0.7 0 0.7 0.6v5q0 0.7-0.7 0.7h-5.4q-0.6 0-0.6-0.7v-5q0-0.6 0.6-0.6zm0 9.4h5.4q0.7 0.1 0.7 0.7v5q0 0.6-0.7 0.6h-5.4q-0.6 0-0.6-0.6v-5q0-0.7 0.6-0.7zm0 9.5h5.4q0.7 0.1 0.7 0.6v5.1q0 0.6-0.7 0.6h-5.4q-0.6 0-0.6-0.6v-5.1q0-0.6 0.6-0.6zm0 9.5h5.4q0.7 0.1 0.7 0.6v5.1q0 0.6-0.7 0.6h-5.4q-0.6 0-0.6-0.6v-5.1q0-0.6 0.6-0.6zm0 9.5h5.4q0.7 0 0.7 0.6v5q0 0.7-0.7 0.7h-5.4q-0.6 0-0.6-0.7v-5q0-0.6 0.6-0.6zm0 9.4h5.4q0.7 0.1 0.7 0.7v5q0 0.6-0.7 0.6h-5.4q-0.6 0-0.6-0.6v-5q0-0.7 0.6-0.7zm0 9.5h5.4q0.7 0.1 0.7 0.6v5.1q0 0.6-0.7 0.6h-5.4q-0.6 0-0.6-0.6v-5.1q0-0.6 0.6-0.6zm0 9.5h5.4q0.7 0.1 0.7 0.6v5.1q0 0.6-0.7 0.6h-5.4q-0.6 0-0.6-0.6v-5.1q0-0.6 0.6-0.6zm0 9.5h5.4q0.7 0 0.7 0.6v5q0 0.7-0.7 0.7h-5.4q-0.6 0-0.6-0.7v-5q0-0.6 0.6-0.6zm0 9.4h5.4q0.7 0.1 0.7 0.7v5q0 0.7-0.7 0.7h-5.4q-0.6 0-0.6-0.7v-5q0-0.7 0.6-0.7zm0 9.5h5.4q0.7 0.1 0.7 0.6v5.1q0 0.6-0.7 0.6h-5.4q-0.6 0-0.6-0.6v-5.1q0-0.6 0.6-0.6zm0 9.5h5.4q0.7 0.1 0.7 0.6v5.1q0 0.6-0.7 0.6h-5.4q-0.6 0-0.6-0.6v-5.1q0-0.6 0.6-0.6zm0 9.5h5.4q0.7 0 0.7 0.6v5q0 0.7-0.7 0.7h-5.4q-0.6 0-0.6-0.7v-5q0-0.6 0.6-0.6zm0 9.4h5.4q0.7 0.1 0.7 0.7v5q0 0.7-0.7 0.7h-5.4q-0.6 0-0.6-0.7v-5q0-0.7 0.6-0.7zm0 9.5h5.4q0.7 0.1 0.7 0.6v5.1q0 0.6-0.7 0.6h-5.4q-0.6 0-0.6-0.6v-5.1q0-0.6 0.6-0.6z" />
			</g>
			<g id="&lt;Group&gt;">
				<path id="&lt;Compound Path&gt;" fill-rule="evenodd" class="s16" d="m157.4 62.3v13.5h13.5v121.6h-13.5v13.5h-104.6v-148.6zm-55.5 108.8h19.9v-69h-19.9z" />
				<path id="&lt;Compound Path&gt;" fill-rule="evenodd" class="s16" d="m299.7 62.3v148.6h-48.5v-39.8h-16.5v39.8h-48.5v-148.6zm-64.4 72.6h15.3v-37.5h-15.3z" />
				<path id="&lt;Compound Path&gt;" class="s16" d="m313.7 101.6v-39.3h113.5v39.3h-32.2v109.3h-49.1v-109.3z" />
				<path id="&lt;Compound Path&gt;" fill-rule="evenodd" class="s16" d="m553.4 62.3v148.6h-48.5v-39.8h-16.5v39.8h-48.5v-148.6zm-64.4 72.6h15.3v-37.5h-15.3z" />
			</g>
			<g id="&lt;Group&gt;">
				<g id="&lt;Group&gt;">
					<path id="&lt;Path&gt;" class="s17" d="m73.4 33.4c-2 0.4-3.7-1.5-3.2-3.4c1.3-5 3.4-12.7 3.6-13.3c0.8-1.7 7-6.2 18.7-9.6c11.8-3.4 23.5-2.2 32.5 0.6c9.5 3.1 16.4 9.7 16.9 10.2q0.5 0.5 0.8 3.1z" />
					<path id="&lt;Path&gt;" class="s16" d="m65.9 64.2c-1.7 0.1-3-1.3-2.8-3c0.2-2 0.5-4.8 0.9-8c1.2-7.9 4.1-18.3 7.6-24.1c6.7-11.3 19.8-19.3 31.6-21c11.8-1.8 26.5 0.3 38.5 11.8c10.6 10.3 15.5 31.6 16.7 40.1c0.3 1.7-1 3.2-2.7 3.2z" />
					<path id="&lt;Path&gt;" class="s17" d="m73.6 59.8c17.4 2.2 46.6 2.9 82.2-3.3c1.2-0.2 2.3 0.4 2.9 1.4c0.8 1.3 1.7 2.8 2.4 4.1c1 1.6 0.2 3.6-1.7 4.1c-7.2 1.9-25.3 5.2-50.3 5.7c-34.3 0.6-54.9-2.2-58.9-2.9c-3.6-0.8-3.9-2.8-2.8-3.5c7-4.6 9.8-6.3 14.2-10.1c1.2-1 3-0.9 3.9 0.3c1.4 1.7 4 3.7 8.1 4.2z" />
					<path id="&lt;Path&gt;" class="s17" d="m101.8 55l0.1 5.8c0 1.3-1 2.3-2.3 2.3l-15.4 0.3c-1.3 0.1-2.4-0.9-2.4-2.2l-0.1-5.8c-0.1-2.5 1.9-4.5 4.3-4.6l11.3-0.2c2.4 0 4.4 1.9 4.5 4.4z" />
					<path id="&lt;Path&gt;" class="s17" d="m139.6 54.2l0.1 5.8c0 1.3-1 2.4-2.3 2.4l-15.5 0.3c-1.3 0-2.3-1-2.4-2.3l-0.1-5.8c0-2.4 1.9-4.5 4.4-4.5l11.2-0.2c2.5-0.1 4.5 1.9 4.6 4.3z" />
					<path id="&lt;Path&gt;" class="s17" d="m74 34.3c-1-0.7 12.6-21.4 34.9-21.8c22.7-0.5 32 12.2 32.1 13.5c0 1.3-11.8-5.2-31-4c-20.7 1.3-33.8 13.7-36 12.3z" />
				</g>
			</g>
		</g>
		<g id="&lt;Group&gt;">
			<g id="&lt;Group&gt;">
				<path id="&lt;Compound Path&gt;" class="s16" d="m413.3 218.9v100.4h-22.6v-100.4z" />
			</g>
			<g id="&lt;Group&gt;">
				<path id="&lt;Path&gt;" class="s16" d="m458.1 318.5c-4.2 2-9.3 0.4-11.4-3.6l-16.4-30.6c-2.1-3.9-0.4-8.7 3.8-10.7c4.2-2 9.3-0.4 11.4 3.5l16.3 30.6c2.1 4 0.5 8.8-3.7 10.8z" />
				<g id="&lt;Group&gt;">
					<path id="&lt;Path&gt;" class="s4" d="m456.1 303.2q-0.2 0-0.3-0.2l-2.1-4c-0.1-0.2 0-0.5 0.3-0.7c0.2-0.1 0.5 0 0.7 0.3l2.1 3.9c0.1 0.3 0 0.6-0.2 0.7q-0.2 0.1-0.5 0z" />
					<path id="&lt;Path&gt;" class="s4" d="m453.2 297.7q-0.2-0.1-0.3-0.2c-2.4-4.6-4.8-9.1-7.3-13.6c-0.1-0.2 0-0.5 0.2-0.6c0.3-0.2 0.6-0.1 0.8 0.2c2.4 4.4 4.9 9 7.2 13.5c0.2 0.3 0.1 0.6-0.2 0.7q-0.2 0.1-0.4 0z" />
				</g>
				<g id="&lt;Group&gt;">
					<path id="&lt;Path&gt;" class="s16" d="m435.2 258.5c-0.5-0.4-0.5-1.1 0-1.6q1.3-1.2 2.2-2.6c0.4-0.5 1.1-0.6 1.7-0.3c0.5 0.3 0.7 1 0.3 1.6q-1.1 1.6-2.5 2.9c-0.5 0.5-1.2 0.5-1.7 0z" />
					<path id="&lt;Path&gt;" class="s16" d="m439.1 253.2c-0.4-0.3-0.5-0.8-0.3-1.2c2.9-6.3 1.5-13.4-3.6-18.2c-0.5-0.4-0.5-1.1 0-1.6c0.5-0.4 1.2-0.4 1.7 0c5.8 5.5 7.4 13.6 4.1 20.7c-0.3 0.5-1 0.8-1.6 0.5q-0.2 0-0.3-0.2z" />
				</g>
				<path id="&lt;Path&gt;" class="s19" d="m449 245.4c0 12.7-10.9 23-24.4 23c-13.4 0-24.3-10.3-24.3-23c0-12.7 10.9-23 24.3-23c13.5 0 24.4 10.3 24.4 23z" />
				<path id="&lt;Path&gt;" class="s16" d="m439.7 278.7l-4.8 2.4l-7.7-14.4l4.8-2.4z" />
			</g>
		</g>
	</g>
</svg>